<svg width="24" height="24" viewBox="0 0 24 24" fill="white" xmlns="http://www.w3.org/2000/svg">
<path d="M8.36494 10L11.1999 8H14.6919L13.5999 5H10.9999V3H14.9999L16.0919 6H19.9999V9H17.1839L18.6399 13.002C19.7447 13.0371 20.7979 13.4776 21.5987 14.2395C22.3995 15.0014 22.8919 16.0313 22.982 17.133C23.0721 18.2346 22.7536 19.3309 22.0872 20.2127C21.4208 21.0946 20.4532 21.7003 19.3688 21.9145C18.2844 22.1286 17.1591 21.9362 16.2076 21.3738C15.256 20.8115 14.5446 19.9186 14.2092 18.8654C13.8737 17.8122 13.9376 16.6724 14.3887 15.6633C14.8398 14.6542 15.6465 13.8464 16.6549 13.394L15.4189 10H14.4719L12.8899 15.87L9.96494 16.939C10.0705 17.7812 9.93571 18.6362 9.57611 19.4051C9.21651 20.174 8.64676 20.8255 7.93267 21.2844C7.21858 21.7433 6.38925 21.9908 5.54045 21.9985C4.69166 22.0061 3.858 21.7736 3.13575 21.3276C2.4135 20.8817 1.8321 20.2405 1.45869 19.4783C1.08528 18.716 0.935088 17.8636 1.02545 17.0196C1.11582 16.1756 1.44305 15.3744 1.96938 14.7084C2.4957 14.0424 3.19965 13.5389 3.99994 13.256V12H1.99994V10H8.36494ZM5.49994 20C6.16298 20 6.79887 19.7366 7.26771 19.2678C7.73655 18.7989 7.99994 18.163 7.99994 17.5C7.99994 16.837 7.73655 16.2011 7.26771 15.7322C6.79887 15.2634 6.16298 15 5.49994 15C4.8369 15 4.20102 15.2634 3.73218 15.7322C3.26333 16.2011 2.99994 16.837 2.99994 17.5C2.99994 18.163 3.26333 18.7989 3.73218 19.2678C4.20102 19.7366 4.8369 20 5.49994 20ZM18.4999 20C19.163 20 19.7989 19.7366 20.2677 19.2678C20.7366 18.7989 20.9999 18.163 20.9999 17.5C20.9999 16.837 20.7366 16.2011 20.2677 15.7322C19.7989 15.2634 19.163 15 18.4999 15C17.8369 15 17.201 15.2634 16.7322 15.7322C16.2633 16.2011 15.9999 16.837 15.9999 17.5C15.9999 18.163 16.2633 18.7989 16.7322 19.2678C17.201 19.7366 17.8369 20 18.4999 20Z" fill="black"/>
</svg>
