<svg width="72" height="72" viewBox="0 0 72 72" fill="none" xmlns="http://www.w3.org/2000/svg">
<path d="M42.4999 30.0999L38.9999 27.6999C38.4999 27.3999 37.7999 27.4999 37.4999 28.0999L36.3999 30.0999" fill="#F1B31C"/>
<path d="M64.7999 44.7L63.6999 44.1C63.2999 43.9 63.0999 43.5 63.1999 43.1C63.4999 41.2 63.6999 34.6 53.4999 31.6C53.2999 31.5 53.0999 31.5 52.8999 31.5L33.2999 31.6C32.8999 31.6 32.4999 31.7 32.1999 31.9L21.8999 38.8C21.6999 38.9 21.4999 39 21.2999 39C19.3999 38.9 17.5999 39.1 15.6999 39.4C10.2999 40.5 8.09992 43.4 7.29992 44.9C7.09992 45.2 7.09992 45.6 7.09992 45.9C7.19992 48.3 5.59992 51 7.99992 53.2L27.3999 53.1L47.7999 52.6L63.8999 52.4C64.7999 52.3 66.2999 51 66.6999 50.2C68.3999 47.5 64.9999 44.8 64.7999 44.7Z" fill="#FCEA2B"/>
<path d="M17.3 47.0996C15.1 47.0996 13.3 48.8996 13.3 51.0996C13.3 53.2996 15.1 55.0996 17.3 55.0996C19.5 55.0996 21.3 53.2996 21.3 51.0996C21.3 48.8996 19.5 47.0996 17.3 47.0996ZM57.1 47.0996C54.9 47.0996 53.1 48.8996 53.1 51.0996C53.1 53.2996 54.9 55.0996 57.1 55.0996C59.3 55.0996 61.1 53.2996 61.1 51.0996C61.1 48.8996 59.3 47.0996 57.1 47.0996Z" fill="#9B9B9A"/>
<path d="M56.0999 40V35.7C56.0999 34.8 55.2999 34 54.3999 34H33.1999C33.0999 34 32.9999 34 32.9999 34.1L24.3999 39.8C24.1999 39.9 24.7999 40.2 24.8999 40.4C24.9999 40.5 25.0999 40.6 25.1999 40.6C30.7999 40.6 52.3999 40.4 55.5999 40.5C55.8999 40.5 56.0999 40.3 56.0999 40C56.0999 40.1 56.0999 40.1 56.0999 40Z" fill="#3F3F3F"/>
<path d="M8.90005 41.2002L12.9 42.8002L10.8 45.7002L5.80005 45.8002L8.90005 41.2002Z" fill="#D0CFCE"/>
<path d="M42.4999 30.0999L38.9999 27.6999C38.4999 27.3999 37.7999 27.4999 37.4999 28.0999L36.3999 30.0999" stroke="black" stroke-width="2" stroke-miterlimit="10" stroke-linecap="round" stroke-linejoin="round"/>
<path d="M47.6 51.6996L27 52.0996M8.1 52.0996C7.2 51.8996 6.4 51.5996 6.3 51.0996C6.2 50.0996 6 47.2996 6 45.9996C6 45.4996 6.1 44.8996 6.4 44.4996C7.5 42.4996 11.2 37.6996 21.3 38.0996L31.6 31.1996C32.1 30.8996 32.7 30.6996 33.2 30.6996L52.8 30.5996C53.1 30.5996 53.4 30.5996 53.7 30.6996C55.9 31.2996 65.4 34.6996 64.1 43.2996L65.2 43.8996C65.7 44.0996 66.1 44.5996 66.2 45.0996C66.6 46.4996 66.5 47.9996 66 49.3996" stroke="black" stroke-width="2" stroke-linecap="round" stroke-linejoin="round"/>
<path d="M24.8999 40.6004L55.0999 40.4004V35.9004" stroke="black" stroke-width="2" stroke-linecap="round" stroke-linejoin="round"/>
<path d="M17.3 56.0996C20.0615 56.0996 22.3 53.861 22.3 51.0996C22.3 48.3382 20.0615 46.0996 17.3 46.0996C14.5386 46.0996 12.3 48.3382 12.3 51.0996C12.3 53.861 14.5386 56.0996 17.3 56.0996Z" stroke="black" stroke-width="2" stroke-linecap="round" stroke-linejoin="round"/>
<path d="M57.1001 56.0996C59.8615 56.0996 62.1001 53.861 62.1001 51.0996C62.1001 48.3382 59.8615 46.0996 57.1001 46.0996C54.3387 46.0996 52.1001 48.3382 52.1001 51.0996C52.1001 53.861 54.3387 56.0996 57.1001 56.0996Z" stroke="black" stroke-width="2" stroke-linecap="round" stroke-linejoin="round"/>
<path d="M12.3 43.5996L10.5 45.7996L6.80005 45.6996" stroke="black" stroke-width="2" stroke-linecap="round" stroke-linejoin="round"/>
<path d="M24.1001 44.0996H50.1001" stroke="black" stroke-width="2" stroke-miterlimit="10" stroke-linecap="round" stroke-linejoin="round"/>
<path d="M24.1001 44.0996H50.1001" stroke="#F1B31C" stroke-width="2.1" stroke-miterlimit="10" stroke-linecap="round" stroke-linejoin="round"/>
</svg>
