<?xml version="1.0" encoding="iso-8859-1"?>
<!-- Uploaded to: SVG Repo, www.svgrepo.com, Generator: SVG Repo Mixer Tools -->
<svg version="1.1" id="Layer_1" xmlns="http://www.w3.org/2000/svg" xmlns:xlink="http://www.w3.org/1999/xlink" 
	 viewBox="0 0 512 512" xml:space="preserve">
<path style="fill:#8FD9C2;" d="M232.719,8.17c-29.48,0-53.379,23.898-53.379,53.379V503.83h162.245L363.373,256L341.586,8.17
	H232.719z"/>
<path style="fill:#4BBCD6;" d="M450.451,8.17H341.585v495.66h108.866c29.48,0,53.379-23.898,53.379-53.379V61.549
	C503.83,32.069,479.931,8.17,450.451,8.17z"/>
<g>
	<circle style="fill:#FFFFFF;" cx="422.705" cy="88.271" r="31.711"/>
	<circle style="fill:#FFFFFF;" cx="422.705" cy="200.094" r="31.711"/>
	<circle style="fill:#FFFFFF;" cx="422.705" cy="311.906" r="31.711"/>
	<circle style="fill:#FFFFFF;" cx="422.705" cy="423.729" r="31.711"/>
	<circle style="fill:#FFFFFF;" cx="260.619" cy="88.271" r="31.711"/>
</g>
<polyline style="fill:#F23E6D;" points="268.135,194.702 268.135,151.382 36.439,151.382 36.439,194.702 "/>
<g>
	<path style="fill:#FF7226;" d="M36.439,183.808c0,0-6.361,3.642-14.134,8.094C14.531,196.353,8.17,208.089,8.17,217.98v57.402
		l144.117,21.787l144.117-21.787V217.98c0-9.892-6.361-21.628-14.134-26.079c-7.774-4.451-14.134-8.094-14.134-8.094"/>
	<path style="fill:#FF7226;" d="M8.17,449.873v26.979c0,14.838,12.141,26.979,26.979,26.979h234.277
		c14.838,0,26.979-12.141,26.979-26.979v-26.979l-144.117-21.787L8.17,449.873z"/>
</g>
<rect x="8.17" y="275.38" style="fill:#F7EBD4;" width="288.234" height="174.494"/>
<g>
	<path style="fill:#FFD15D;" d="M30.513,94.651c-7.42,0-13.49,6.07-13.49,13.49v43.241h64.999L71.129,94.651
		C71.129,94.651,30.513,94.651,30.513,94.651z"/>
	<path style="fill:#FFD15D;" d="M287.551,108.141c0-7.42-6.07-13.49-13.49-13.49h-40.616l-10.894,56.731h64.999V108.141z"/>
	<polygon style="fill:#FFD15D;" points="125.235,94.651 114.342,151.382 190.234,151.382 179.341,94.651 	"/>
</g>
<g>
	<rect x="71.135" y="94.655" style="fill:#F7EBD4;" width="54.105" height="56.734"/>
	<rect x="179.342" y="94.655" style="fill:#F7EBD4;" width="54.105" height="56.734"/>
</g>
<path style="fill:#FFD15D;" d="M103.41,321.264c-22.845,0-41.364,18.519-41.364,41.364c0,22.845,18.519,41.364,41.364,41.364h48.877
	v-82.728H103.41z"/>
<path style="fill:#F56E92;" d="M201.165,321.264h-48.877v82.728h48.877c22.845,0,41.364-18.519,41.364-41.364
	C242.529,339.783,224.01,321.264,201.165,321.264z"/>
<g>
	<path style="fill:#3E0412;" d="M296.404,159.552c4.512,0,8.17-3.658,8.17-8.17c0-4.512-3.658-8.17-8.17-8.17h-0.683v-35.071
		c0-11.943-9.716-21.66-21.66-21.66H30.513c-11.943,0-21.66,9.716-21.66,21.66v35.071H8.17c-4.512,0-8.17,3.658-8.17,8.17
		c0,4.512,3.658,8.17,8.17,8.17h20.099v19.518l-10.024,5.741C8.013,190.67,0,205.239,0,217.981v258.87
		C0,496.233,15.767,512,35.149,512h234.277c19.382,0,35.149-15.767,35.149-35.149V217.981c0-12.741-8.013-27.311-18.246-33.17
		l-10.024-5.74v-19.518h20.099V159.552z M25.194,108.141c0-2.884,2.436-5.319,5.319-5.319h32.446v15.88
		c0,4.512,3.658,8.17,8.17,8.17c4.512,0,8.17-3.658,8.17-8.17v-15.88h37.765v15.88c0,4.512,3.658,8.17,8.17,8.17
		s8.17-3.658,8.17-8.17v-15.88h37.765v15.88c0,4.512,3.658,8.17,8.17,8.17c4.512,0,8.17-3.658,8.17-8.17v-15.88h37.765v15.88
		c0,4.512,3.658,8.17,8.17,8.17c4.512,0,8.17-3.658,8.17-8.17v-15.88h32.447c2.884,0,5.319,2.436,5.319,5.319v35.071H25.194V108.141
		z M288.234,441.702H16.34v-158.15h271.894V441.702z M269.426,495.66H35.149c-10.372,0-18.809-8.437-18.809-18.809v-18.809h271.894
		v18.809C288.234,487.222,279.797,495.66,269.426,495.66z M264.075,190.898l14.134,8.094c5.246,3.004,10.024,12.055,10.024,18.99
		v49.232H16.34v-49.232c0-6.935,4.778-15.985,10.024-18.99l14.136-8.094c2.541-1.455,4.11-4.16,4.11-7.09v-24.256h215.356v24.256
		C259.965,186.736,261.534,189.441,264.075,190.898z"/>
	<path style="fill:#3E0412;" d="M103.41,412.162h97.755c27.314,0,49.534-22.221,49.534-49.534s-22.221-49.534-49.534-49.534H103.41
		c-27.314,0-49.534,22.221-49.534,49.534S76.096,412.162,103.41,412.162z M234.359,362.627c0,18.303-14.89,33.194-33.194,33.194
		h-40.707v-66.387h40.707C219.468,329.434,234.359,344.324,234.359,362.627z M103.41,329.434h40.707v66.388H103.41
		c-18.303,0-33.194-14.89-33.194-33.194S85.106,329.434,103.41,329.434z"/>
	<path style="fill:#3E0412;" d="M235.455,175.637H134.482c-4.512,0-8.17,3.658-8.17,8.17c0,4.512,3.658,8.17,8.17,8.17h100.973
		c4.512,0,8.17-3.658,8.17-8.17C243.625,179.295,239.967,175.637,235.455,175.637z"/>
	<path style="fill:#3E0412;" d="M101.801,175.637H69.12c-4.512,0-8.17,3.658-8.17,8.17c0,4.512,3.658,8.17,8.17,8.17h32.681
		c4.512,0,8.17-3.658,8.17-8.17C109.971,179.295,106.313,175.637,101.801,175.637z"/>
	<path style="fill:#3E0412;" d="M333.414,471.149c0,4.512,3.658,8.17,8.17,8.17s8.17-3.658,8.17-8.17v-65.362
		c0-4.512-3.658-8.17-8.17-8.17s-8.17,3.658-8.17,8.17V471.149z"/>
	<path style="fill:#3E0412;" d="M341.585,381.277c4.512,0,8.17-3.658,8.17-8.17V40.851c0-4.512-3.658-8.17-8.17-8.17
		s-8.17,3.658-8.17,8.17v332.255C333.414,377.618,337.072,381.277,341.585,381.277z"/>
	<path style="fill:#3E0412;" d="M450.451,0H232.718c-33.938,0-61.549,27.611-61.549,61.549c0,4.512,3.658,8.17,8.17,8.17
		c4.512,0,8.17-3.658,8.17-8.17c0-24.928,20.281-45.209,45.208-45.209h217.733c24.928,0,45.208,20.281,45.208,45.209v388.902
		c0,24.928-20.281,45.208-45.208,45.208H322.744c-4.512,0-8.17,3.658-8.17,8.17s3.658,8.17,8.17,8.17h127.707
		C484.389,512,512,484.389,512,450.451V61.549C512,27.611,484.389,0,450.451,0z"/>
	<path style="fill:#3E0412;" d="M422.707,128.158c21.992,0,39.885-17.892,39.885-39.885c0-21.992-17.892-39.884-39.885-39.884
		c-21.993,0-39.885,17.892-39.885,39.884C382.822,110.266,400.715,128.158,422.707,128.158z M422.707,64.73
		c12.982,0,23.544,10.561,23.544,23.543s-10.561,23.544-23.544,23.544c-12.983,0-23.544-10.561-23.544-23.544
		C399.163,75.291,409.725,64.73,422.707,64.73z"/>
	<path style="fill:#3E0412;" d="M422.707,239.975c21.992,0,39.885-17.892,39.885-39.885c0-21.992-17.892-39.884-39.885-39.884
		c-21.993,0-39.885,17.892-39.885,39.884C382.822,222.084,400.715,239.975,422.707,239.975z M422.707,176.547
		c12.982,0,23.544,10.561,23.544,23.543s-10.561,23.544-23.544,23.544c-12.983,0-23.544-10.561-23.544-23.544
		C399.163,187.109,409.725,176.547,422.707,176.547z"/>
	<path style="fill:#3E0412;" d="M422.707,351.793c21.992,0,39.885-17.892,39.885-39.884c0-21.992-17.892-39.885-39.885-39.885
		c-21.993,0-39.885,17.892-39.885,39.885C382.822,333.901,400.715,351.793,422.707,351.793z M422.707,288.365
		c12.982,0,23.544,10.561,23.544,23.544c0,12.982-10.561,23.543-23.544,23.543c-12.983,0-23.544-10.561-23.544-23.543
		C399.163,298.926,409.725,288.365,422.707,288.365z"/>
	<path style="fill:#3E0412;" d="M422.707,463.611c21.992,0,39.885-17.892,39.885-39.884c0-21.992-17.892-39.885-39.885-39.885
		c-21.993,0-39.885,17.892-39.885,39.885C382.822,445.719,400.715,463.611,422.707,463.611z M422.707,400.182
		c12.982,0,23.544,10.561,23.544,23.544c0,12.982-10.561,23.543-23.544,23.543c-12.983,0-23.544-10.561-23.544-23.543
		C399.163,410.744,409.725,400.182,422.707,400.182z"/>
	<path style="fill:#3E0412;" d="M247.31,68.742c3.888-2.625,8.436-4.012,13.153-4.012c4.814,0,9.44,1.44,13.377,4.166
		c1.418,0.982,3.038,1.452,4.642,1.452c2.59,0,5.14-1.229,6.726-3.521c2.568-3.71,1.642-8.8-2.069-11.369
		c-6.682-4.625-14.524-7.07-22.676-7.07c-7.988,0-15.698,2.355-22.296,6.81c-3.74,2.525-4.725,7.603-2.199,11.344
		C238.493,70.282,243.571,71.267,247.31,68.742z"/>
</g>
</svg>