<?xml version="1.0" encoding="utf-8"?>
<!-- Generator: Adobe Illustrator 27.7.0, SVG Export Plug-In . SVG Version: 6.00 Build 0)  -->
<svg version="1.1" id="Layer_1" xmlns="http://www.w3.org/2000/svg" xmlns:xlink="http://www.w3.org/1999/xlink" x="0px" y="0px"
	 viewBox="0 0 512 512" style="enable-background:new 0 0 512 512;" xml:space="preserve">
<g>
	<path d="M323.37,40.42H26.95c-7.1,0-14.04,2.87-19.05,7.89S0,60.27,0,67.37c0,7.1,2.87,14.04,7.89,19.05
		c5.02,5.02,11.96,7.89,19.05,7.89h80.84c44.64,0.08,80.76,36.2,80.84,80.84c-0.08,44.64-36.2,80.76-80.84,80.84H26.95
		c-10.9,0-20.73,6.57-24.9,16.64S0.19,294.3,7.89,302l161.68,161.68c10.52,10.52,27.59,10.52,38.11,0
		c10.52-10.52,10.52-27.59,0-38.11L92,309.89l15.79,0c74.42-0.02,134.72-60.31,134.74-134.74
		c-0.02-74.42-60.31-134.72-134.74-134.74H26.95c-7.1,0-14.04,2.87-19.05,7.89S0,60.27,0,67.37c0,7.1,2.87,14.04,7.89,19.05
		c5.02,5.02,11.96,7.89,19.05,7.89h296.42c14.88,0,26.95-12.06,26.95-26.95C350.32,52.49,338.25,40.42,323.37,40.42L323.37,40.42z"
		/>
	<path d="M503.74,371.32L380.16,252.38l0.03,0.03c-15.62-15.1-36.02-22.72-56.16-22.69c-21.07-0.03-42.36,8.31-58.15,24.68
		c-15.08,15.6-22.72,35.99-22.69,56.16c-0.03,20.17,7.61,40.56,22.69,56.16l0.33,0.33l19.05,19.05c10.52,10.52,27.59,10.52,38.11,0
		c10.52-10.52,10.52-27.59,0-38.11l-19.05-19.05L285.26,348l19.38-18.72c-5.09-5.28-7.54-11.89-7.56-18.72
		c0.03-6.83,2.48-13.44,7.56-18.72c5.35-5.53,12.24-8.2,19.39-8.23c6.83,0.03,13.41,2.46,18.72,7.56l0.03,0.03l123.58,118.95
		c10.72,10.32,27.78,9.99,38.1-0.73C514.79,398.7,514.46,381.64,503.74,371.32L503.74,371.32z"/>
</g>
</svg>
