<?xml version="1.0" standalone="no"?>
<!DOCTYPE svg PUBLIC "-//W3C//DTD SVG 20010904//EN"
 "http://www.w3.org/TR/2001/REC-SVG-20010904/DTD/svg10.dtd">
<svg version="1.0" xmlns="http://www.w3.org/2000/svg"
 width="64.000000pt" height="64.000000pt" viewBox="0 0 64.000000 64.000000"
 preserveAspectRatio="xMidYMid meet">

<g transform="translate(0.000000,64.000000) scale(0.100000,-0.100000)"
fill="#000000" stroke="none">
<path d="M240 531 c0 -14 27 -21 80 -21 53 0 80 7 80 21 0 5 -36 9 -80 9 -44
0 -80 -4 -80 -9z"/>
<path d="M132 467 c-6 -7 -24 -43 -41 -80 -26 -58 -34 -67 -56 -67 -17 0 -25
-5 -23 -12 7 -19 609 -19 616 0 2 7 -6 12 -22 12 -23 0 -31 10 -64 78 l-37 77
-181 3 c-140 2 -184 -1 -192 -11z m382 -76 c14 -32 26 -61 26 -65 0 -3 -99 -6
-220 -6 -121 0 -220 3 -220 6 0 4 12 33 26 65 l27 59 167 0 167 0 27 -59z"/>
<path d="M7 243 c-13 -12 -7 -118 8 -147 8 -15 15 -38 15 -50 0 -33 19 -46 70
-46 51 0 70 13 70 47 0 23 0 23 150 23 150 0 150 0 150 -23 0 -34 19 -47 70
-47 50 0 70 13 70 45 0 12 7 36 16 53 10 20 14 51 12 89 l-3 58 -77 3 -78 3 0
-35 c0 -43 29 -66 83 -66 34 0 38 -3 35 -22 l-3 -23 -275 0 -275 0 -3 23 c-3
19 1 22 35 22 54 0 83 23 83 66 l0 34 -73 0 c-41 0 -77 -3 -80 -7z m121 -40
c-2 -13 -15 -19 -46 -21 -37 -3 -42 -1 -42 17 0 18 6 21 46 21 38 0 45 -3 42
-17z m472 -4 c0 -18 -5 -20 -42 -17 -31 2 -44 8 -46 21 -3 14 4 17 42 17 40 0
46 -3 46 -21z m-470 -149 c0 -16 -7 -20 -30 -20 -23 0 -30 4 -30 20 0 16 7 20
30 20 23 0 30 -4 30 -20z m440 0 c0 -16 -7 -20 -30 -20 -23 0 -30 4 -30 20 0
16 7 20 30 20 23 0 30 -4 30 -20z"/>
<path d="M203 168 c5 -18 229 -18 235 0 3 9 -25 12 -118 12 -93 0 -121 -3
-117 -12z"/>
</g>
</svg>
