<!DOCTYPE svg PUBLIC "-//W3C//DTD SVG 1.1//EN" "http://www.w3.org/Graphics/SVG/1.1/DTD/svg11.dtd">
<!-- Uploaded to: SVG Repo, www.svgrepo.com, Transformed by: SVG Repo Mixer Tools -->
<svg height="800px" width="800px" version="1.1" id="Layer_1" xmlns="http://www.w3.org/2000/svg" xmlns:xlink="http://www.w3.org/1999/xlink" viewBox="0 0 512.002 512.002" xml:space="preserve" fill="#000000">
<g id="SVGRepo_bgCarrier" stroke-width="0"/>
<g id="SVGRepo_tracerCarrier" stroke-linecap="round" stroke-linejoin="round"/>
<g id="SVGRepo_iconCarrier"> <path style="fill:#FFFFFF;" d="M341.335,136.534v115.968l-31.659,31.573c-1.536,1.621-2.475,3.755-2.475,6.059v34.133h-59.733 V136.534H341.335z"/> <path style="fill:#178a00;" d="M494.935,273.068v17.067h-8.533c-4.693,0-8.533,3.84-8.533,8.533v59.733H144.642 c-3.413-34.389-27.307-62.805-59.307-72.875v-20.992c0-4.693-3.84-8.533-8.533-8.533h-25.6v-17.067h8.533 c3.84,0,7.168-2.56,8.192-6.229c1.536-5.291,3.243-10.667,4.949-16.043l42.752,21.333c1.195,0.597,2.475,0.939,3.84,0.939h110.933 v93.867c0,4.693,3.84,8.533,8.533,8.533h76.8c4.693,0,8.533-3.84,8.533-8.533v-39.168l29.099-29.099h124.501 c0,4.693,3.84,8.533,8.533,8.533H494.935z"/> <path style="fill:#b30000;" d="M477.869,162.134v85.333H358.402V128.001c0-4.693-3.84-8.533-8.533-8.533h-202.24l-13.397-8.96 c6.4-4.437,13.056-7.339,19.797-8.107h264.107C451.074,102.401,477.869,129.196,477.869,162.134z"/> <g> <path style="fill:#FFFFFF;" d="M135.255,131.67l-23.296,85.419l-33.451-16.725c11.264-30.635,25.856-59.648,42.581-78.08 L135.255,131.67z"/> <polygon style="fill:#FFFFFF;" points="230.402,136.534 230.402,221.868 128.343,221.868 151.554,136.534 "/> <circle style="fill:#FFFFFF;" cx="55.469" cy="371.201" r="38.4"/> <path style="fill:#FFFFFF;" d="M459.949,375.468c-4.011,19.456-21.248,34.133-41.813,34.133s-37.803-14.677-41.813-34.133H459.949z "/> </g> <path d="M55.469,315.734c-30.549,0-55.467,24.917-55.467,55.467c0,30.549,24.917,55.467,55.467,55.467s55.467-24.917,55.467-55.467 C110.935,340.652,86.018,315.734,55.469,315.734z M55.469,409.601c-21.163,0-38.4-17.237-38.4-38.4c0-21.163,17.237-38.4,38.4-38.4 s38.4,17.237,38.4,38.4C93.869,392.364,76.631,409.601,55.469,409.601z"/> <path d="M503.469,256.001h-8.533v-93.867c0-38.059-27.819-69.717-64.171-75.776c-1.195-0.683-2.645-1.024-4.096-1.024h-273.92 c-54.443,5.547-88.064,99.072-99.413,136.533H42.669c-4.693,0-8.533,3.84-8.533,8.533v34.133c0,4.693,3.84,8.533,8.533,8.533h25.6 v8.96c-2.816-0.256-5.632-0.427-8.533-0.427c-20.992,0-41.216,7.68-56.917,21.76c-3.499,3.157-3.755,8.533-0.683,12.032 c3.157,3.499,8.533,3.84,12.117,0.683c12.459-11.264,28.672-17.408,45.483-17.408c37.632,0,68.267,30.635,68.267,68.267 c0,4.693,3.84,8.533,8.533,8.533h222.549c4.181,28.928,29.013,51.2,59.051,51.2c30.037,0,54.869-22.272,59.051-51.2h9.216 c4.693,0,8.533-3.84,8.533-8.533v-59.733h8.533c4.693,0,8.533-3.84,8.533-8.533v-34.133 C512.002,259.841,508.162,256.001,503.469,256.001z M154.029,102.401h264.107c32.939,0,59.733,26.795,59.733,59.733v85.333H358.402 V128.001c0-4.693-3.84-8.533-8.533-8.533h-202.24l-13.397-8.96C140.631,106.07,147.287,103.169,154.029,102.401z M341.335,136.534 v115.968l-31.659,31.573c-1.536,1.621-2.475,3.755-2.475,6.059v34.133h-59.733V136.534H341.335z M230.402,136.534v85.333H128.343 l23.211-85.333H230.402z M121.09,122.284l14.165,9.387l-23.296,85.419l-33.451-16.725 C89.773,169.729,104.365,140.716,121.09,122.284z M418.135,409.601c-20.565,0-37.803-14.677-41.813-34.133h83.627 C455.938,394.924,438.701,409.601,418.135,409.601z M494.935,290.134h-8.533c-4.693,0-8.533,3.84-8.533,8.533v59.733H144.642 c-3.413-34.389-27.307-62.805-59.307-72.875v-20.992c0-4.693-3.84-8.533-8.533-8.533h-25.6v-17.067h8.533 c3.84,0,7.168-2.56,8.192-6.229c1.536-5.291,3.243-10.667,4.949-16.043l42.752,21.333c1.195,0.597,2.475,0.939,3.84,0.939h110.933 v93.867c0,4.693,3.84,8.533,8.533,8.533h76.8c4.693,0,8.533-3.84,8.533-8.533v-39.168l29.099-29.099h124.501 c0,4.693,3.84,8.533,8.533,8.533h8.533V290.134z"/> <g> <path style="fill:#F4F4F4;" d="M64.54,334.004c7.979,7.04,13.116,17.22,13.116,28.663c0,21.163-17.237,38.4-38.4,38.4 c-3.14,0-6.144-0.486-9.071-1.203c6.775,5.982,15.565,9.737,25.284,9.737c21.163,0,38.4-17.237,38.4-38.4 C93.869,353.179,81.325,338.109,64.54,334.004z"/> <path style="fill:#F4F4F4;" d="M440.894,375.468c-6.639,15.027-21.564,25.6-38.972,25.6c-3.959,0-7.74-0.691-11.392-1.715 c7.458,6.366,17.084,10.249,27.605,10.249c20.565,0,37.803-14.677,41.813-34.133H440.894z"/> <polygon style="fill:#F4F4F4;" points="212.994,136.534 212.994,204.801 132.985,204.801 128.343,221.868 230.402,221.868 230.402,136.534 "/> <path style="fill:#F4F4F4;" d="M85.224,183.408c-2.338,5.572-4.599,11.213-6.716,16.956l33.451,16.725l4.873-17.869L85.224,183.408 z"/> </g> <path style="fill:#e0ca00;" d="M435.748,105.055c15.138,10.846,25.054,28.544,25.054,48.546v93.867h17.067v-85.333 C477.869,135.323,460.119,112.59,435.748,105.055z"/> <path style="fill:#e0ca00;" d="M486.402,273.068c-4.693,0-8.533-3.84-8.533-8.533h-8.533h-8.533c0,8.533,0,12.373,0,17.067v59.733 H341.335h-102.4H140.93c1.741,5.504,3.132,11.153,3.721,17.067h333.218v-59.733c0-4.693,3.84-8.533,8.533-8.533h8.533v-17.067 H486.402z"/> <path style="fill:#F4F4F4;" d="M324.269,136.534v107.435l-31.659,31.573c-1.536,1.621-2.475,3.755-2.475,6.059v25.6h-42.667v17.067 h59.733v-34.133c0-2.304,0.939-4.437,2.475-6.059l31.659-31.573V136.534H324.269z"/> </g>
</svg>