<?xml version="1.0" encoding="iso-8859-1"?>
<!-- Uploaded to: SVG Repo, www.svgrepo.com, Generator: SVG Repo Mixer Tools -->
<svg fill="#000000" height="800px" width="800px" version="1.1" id="Layer_1" xmlns="http://www.w3.org/2000/svg" xmlns:xlink="http://www.w3.org/1999/xlink" 
	 viewBox="0 0 496 496" xml:space="preserve">
<g>
	<g>
		<g>
			<path d="M464,120h-16c-13.232,0-24,10.768-24,24v8h-15.16l-7.024-70.28c10.944,6.976,16.656,12.056,16.808,12.192l10.784-11.824
				C427.68,80.528,387.624,44.736,312,30.136V16c0-8.824-7.176-16-16-16h-96c-8.824,0-16,7.176-16,16v14.136
				C108.376,44.728,68.32,80.528,66.6,82.088l10.8,11.816c0.144-0.136,5.832-5.232,16.8-12.232L87.184,152H72v-8
				c0-13.232-10.768-24-24-24H32c-13.232,0-24,10.768-24,24v32c0,13.232,10.768,24,24,24h16c1.608,0,3.184-0.168,4.704-0.472
				l27.664,20.752L80,224v184h16v64c0,13.232,10.768,24,24,24h32c13.232,0,24-10.768,24-24v-64h8v32h16v-8h8v40
				c0,13.232,10.768,24,24,24h32c13.232,0,24-10.768,24-24v-40h8v8h16v-32h8v64c0,13.232,10.768,24,24,24h32
				c13.232,0,24-10.768,24-24v-64h16l-0.04-184.8l-0.296-2.96l27.632-20.72c1.52,0.312,3.096,0.48,4.704,0.48h16
				c13.232,0,24-10.768,24-24v-32C488,130.768,477.232,120,464,120z M56,176c0,4.416-3.584,8-8,8H32c-4.416,0-8-3.584-8-8v-32
				c0-4.416,3.584-8,8-8h16c4.416,0,8,3.584,8,8V176z M82.224,201.672L67.12,190.344C70.144,186.336,72,181.4,72,176v-8h13.584
				L82.224,201.672z M200,16h96v24h-96V16z M111.248,71.864c17.624-9.216,41.976-19.152,72.752-25.432V56h128v-9.568
				c30.72,6.272,55.096,16.248,72.752,25.48l13.312,132.76c-4.064,2.232-10.68,5.416-20.12,8.84C372.824,210.04,366.648,208,360,208
				c-12.368,0-22.992,7.12-28.32,17.416c-13.664,2.368-28.72,4.104-44.912,5.184C282.512,213.088,266.8,200,248,200
				s-34.512,13.088-38.768,30.6c-16.192-1.088-31.248-2.816-44.912-5.184C158.992,215.12,148.368,208,136,208
				c-6.648,0-12.824,2.04-17.944,5.52c-9.416-3.424-16.024-6.592-20.088-8.824L111.248,71.864z M376,240c0,8.824-7.176,16-16,16
				c-8.824,0-16-7.176-16-16c0-8.824,7.176-16,16-16C368.824,224,376,231.176,376,240z M272,240c0,13.232-10.768,24-24,24
				s-24-10.768-24-24s10.768-24,24-24S272,226.768,272,240z M152,240c0,8.824-7.176,16-16,16c-8.824,0-16-7.176-16-16
				c0-8.824,7.176-16,16-16C144.824,224,152,231.176,152,240z M160,472c0,4.416-3.584,8-8,8h-8v-16h-16v16h-8c-4.416,0-8-3.584-8-8
				v-64h16v40h16v-40h16V472z M208,416h-8v-8h8V416z M208,392h-8v-24h8V392z M272,472c0,4.416-3.584,8-8,8h-8v-16h-16v16h-8
				c-4.416,0-8-3.584-8-8V368h16v80h16v-80h16V472z M296,416h-8v-8h8V416z M296,392h-8v-24h8V392z M184.504,352
				c1.056-8.44,3.8-16.352,7.832-23.448C199.648,330.856,219.192,336,248,336s48.352-5.144,55.664-7.448
				c4.024,7.096,6.776,15.008,7.832,23.448H184.504z M202.76,314.856C214.352,303.24,230.336,296,248,296
				c17.672,0,33.664,7.24,45.256,18.872C284.592,317.056,269.048,320,248,320C227.096,320,211.48,317.048,202.76,314.856z M384,472
				c0,4.416-3.584,8-8,8h-8v-16h-16v16h-8c-4.416,0-8-3.584-8-8v-64h16v40h16v-40h16V472z M400,392h-88v-24h16v-8
				c0-44.112-35.888-80-80-80s-80,35.888-80,80v8h16v24H96l-0.04-167.2l0.296-3c3.016,1.448,6.688,3.04,10.84,4.688
				C105.16,230.608,104,235.152,104,240c0,17.648,14.352,32,32,32c16.896,0,30.616-13.192,31.776-29.792
				c12.656,1.968,26.352,3.424,40.888,4.392C211.84,265.512,228.208,280,248,280s36.16-14.488,39.336-33.4
				c14.536-0.968,28.232-2.424,40.888-4.392C329.384,258.808,343.104,272,360,272c17.648,0,32-14.352,32-32
				c0-4.848-1.16-9.392-3.096-13.512c4.168-1.656,7.848-3.256,10.872-4.704L400,224V392z M413.808,201.648L410.44,168H424v8
				c0,5.4,1.856,10.336,4.88,14.344L413.808,201.648z M472,176c0,4.416-3.584,8-8,8h-16c-4.416,0-8-3.584-8-8v-32
				c0-4.416,3.584-8,8-8h16c4.416,0,8,3.584,8,8V176z"/>
			<path d="M384,161.68c0-1.416-0.08-2.832-0.232-4.232l-6.232-56.096C376.176,89.176,365.928,80,353.68,80H142.32
				c-12.248,0-22.504,9.176-23.856,21.352l-6.224,56.088c-0.16,1.408-0.24,2.824-0.24,4.24c0,21.136,17.184,38.32,38.32,38.32H248
				h97.68C366.816,200,384,182.816,384,161.68z M150.32,184c-12.304,0-22.32-10.016-22.32-22.32c0-0.824,0.048-1.64,0.144-2.472
				l6.224-56.096c0.448-4.048,3.864-7.112,7.952-7.112h211.36c4.08,0,7.504,3.064,7.944,7.12l6.232,56.104
				c0.096,0.816,0.144,1.632,0.144,2.456c0,12.304-10.016,22.32-22.32,22.32H150.32z"/>
		</g>
	</g>
</g>
</svg>