<!DOCTYPE svg PUBLIC "-//W3C//DTD SVG 1.1//EN" "http://www.w3.org/Graphics/SVG/1.1/DTD/svg11.dtd">
<!-- Uploaded to: SVG Repo, www.svgrepo.com, Transformed by: SVG Repo Mixer Tools -->
<svg version="1.1" id="Layer_1" xmlns="http://www.w3.org/2000/svg" xmlns:xlink="http://www.w3.org/1999/xlink" viewBox="0 0 512 512" xml:space="preserve" width="800px" height="800px" fill="#000000">
<g id="SVGRepo_bgCarrier" stroke-width="0"/>
<g id="SVGRepo_tracerCarrier" stroke-linecap="round" stroke-linejoin="round"/>
<g id="SVGRepo_iconCarrier"> <circle style="fill:#E6F3FF;" cx="256" cy="256" r="256"/> <path style="fill:#CFDBE6;" d="M259.851,511.952c131.07-1.936,238.277-102.355,250.897-230.569L376.139,146.773l-228.454,8.666 L89.764,340.451l17.572,17.572l-0.976,0.438L259.851,511.952z"/> <rect x="323.732" y="234.451" style="fill:#324A5E;" width="36.049" height="10.814"/> <path style="fill:#ff0000;" d="M408.436,242.017l-18.036-72.14c-5.01-20.042-23.018-34.102-43.677-34.102h-4.97v178.443h-89.221 V135.775h-14.42v178.443H202.89c-14.393,0-26.06-11.667-26.06-26.06v-31.166H84.471v41.948c0,24.864,20.156,45.022,45.022,45.022 h219.934c19.378,0,36.583-12.4,42.711-30.784l15.332-46.001C410.177,259.051,410.514,250.325,408.436,242.017z"/> <path style="fill:#ff0000;" d="M408.436,242.017l-18.036-72.14c-5.01-20.042-23.018-34.102-43.677-34.102h-4.97v178.443h-89.221 V135.775h-7.451v208.184h104.345c19.378,0,36.583-12.4,42.711-30.784l15.332-46.001 C410.177,259.051,410.514,250.325,408.436,242.017z"/> <circle style="fill:#FFD15D;" cx="133.568" cy="332.697" r="29.741"/> <path style="fill:#ff0000;" d="M133.572,302.952c-0.183,0-0.36,0.024-0.543,0.028v59.426c0.183,0.003,0.36,0.028,0.543,0.028 c16.425,0,29.741-13.315,29.741-29.741C163.312,316.268,149.997,302.952,133.572,302.952z"/> <path style="fill:#324A5E;" d="M133.572,370.192c-20.677,0-37.498-16.822-37.498-37.498c0-20.677,16.822-37.498,37.498-37.498 c20.675,0,37.497,16.822,37.497,37.498C171.068,353.37,154.248,370.192,133.572,370.192z M133.572,310.71 c-12.121,0-21.983,9.862-21.983,21.983s9.862,21.983,21.983,21.983s21.982-9.862,21.982-21.983S145.694,310.71,133.572,310.71z"/> <path style="fill:#2B3B4E;" d="M133.572,295.195c-0.183,0-0.362,0.01-0.543,0.014v15.529c0.183-0.005,0.36-0.028,0.543-0.028 c12.121,0,21.982,9.862,21.982,21.983c0,12.121-9.861,21.983-21.982,21.983c-0.183,0-0.362-0.022-0.543-0.028v15.529 c0.181,0.003,0.362,0.014,0.543,0.014c20.675,0,37.497-16.822,37.497-37.498C171.068,312.017,154.248,295.195,133.572,295.195z"/> <path style="fill:#FFD77D;" d="M133.572,288.887c-24.157,0-43.808,19.651-43.808,43.806v7.758h87.614v-7.758 C177.38,308.539,157.727,288.887,133.572,288.887z"/> <g> <path style="fill:#FFD15D;" d="M177.38,332.693c0-24.155-19.651-43.806-43.806-43.806c-0.183,0-0.362,0.012-0.543,0.014v51.55 h44.351v-7.758H177.38z"/> <circle style="fill:#FFD15D;" cx="394.93" cy="332.697" r="29.741"/> </g> <path style="fill:#ff0000;" d="M394.928,302.952c-0.1,0-0.197,0.014-0.297,0.016v59.451c0.1,0.002,0.197,0.016,0.297,0.016 c16.425,0,29.741-13.315,29.741-29.741C424.669,316.268,411.353,302.952,394.928,302.952z"/> <path style="fill:#324A5E;" d="M394.928,370.192c-20.677,0-37.498-16.822-37.498-37.498c0-20.677,16.822-37.498,37.498-37.498 c20.677,0,37.498,16.822,37.498,37.498C432.426,353.37,415.604,370.192,394.928,370.192z M394.928,310.71 c-12.121,0-21.983,9.862-21.983,21.983s9.862,21.983,21.983,21.983s21.983-9.862,21.983-21.983S407.049,310.71,394.928,310.71z"/> <path style="fill:#2B3B4E;" d="M394.928,295.195c-0.1,0-0.197,0.007-0.297,0.007v15.522c0.1-0.002,0.197-0.016,0.297-0.016 c12.121,0,21.983,9.862,21.983,21.983c0,12.121-9.862,21.983-21.983,21.983c-0.1,0-0.197-0.014-0.297-0.016v15.522 c0.1,0,0.197,0.007,0.297,0.007c20.677,0,37.498-16.822,37.498-37.498C432.426,312.013,415.604,295.195,394.928,295.195z"/> <path style="fill:#FFD77D;" d="M394.928,288.887c-24.155,0-43.806,19.651-43.806,43.806v7.758h87.612v-7.758 C438.734,308.539,419.083,288.887,394.928,288.887z"/> <path style="fill:#FFD15D;" d="M438.734,332.693c0-24.155-19.651-43.806-43.806-43.806c-0.1,0-0.197,0.007-0.297,0.007v51.557 h44.103V332.693z"/> <path style="fill:#ff0000;" d="M430.075,296.193H411.15c-10.452,0-18.925-8.473-18.925-18.925l0,0 c0-10.452,8.473-18.925,18.925-18.925h18.925V296.193z"/> <path style="fill:#324A5E;" d="M341.756,135.775H176.831h-13.519h-33.82c-24.866,0-45.022,20.158-45.022,45.022v76.193h92.36 v-91.474h164.924V135.775z"/> <rect x="245.088" y="135.775" style="fill:#2B3B4E;" width="96.677" height="29.741"/> <path style="fill:#31BAFD;" d="M408.436,242.017l-18.036-72.14c-4.568-18.272-19.949-31.534-38.283-33.74v88.259 c0,14.517,11.769,26.286,26.286,26.286h31.298C409.557,247.772,409.15,244.87,408.436,242.017z"/> <path style="fill:#2B9ED8;" d="M386.91,160.523c-6.732-13.334-19.763-22.578-34.79-24.386v59.14 C362.422,182.729,375.167,171.479,386.91,160.523z"/> <rect x="252.535" y="254.742" style="fill:#ff0000;" width="29.741" height="59.482"/> <rect x="252.535" y="245.726" style="fill:#d52c15;" width="52.269" height="12.617"/> </g>
</svg>